<svg width="64" height="64" viewBox="0 0 64 64" fill="none" xmlns="http://www.w3.org/2000/svg">
	<rect width="64" height="64" rx="16" fill="#0F172A"/>
	<path d="M18 24C18 21.7909 19.7909 20 22 20H27.2C28.063 20 28.8746 19.7212 29.52 19.205L31.48 17.635C32.1254 17.1188 32.937 16.84 33.8 16.84H38C40.2091 16.84 42 18.6309 42 20.84V20.84H44C46.2091 20.84 48 22.6309 48 24.84V42C48 44.2091 46.2091 46 44 46H20C17.7909 46 16 44.2091 16 42V26C16 23.7909 17.7909 22 20 22H18V24Z" fill="#E2E8F0"/>
	<path d="M20 24H44C45.1046 24 46 24.8954 46 26V42C46 43.1046 45.1046 44 44 44H20C18.8954 44 18 43.1046 18 42V26C18 24.8954 18.8954 24 20 24Z" fill="#38BDF8"/>
	<circle cx="32" cy="34" r="8" fill="#0F172A"/>
	<circle cx="32" cy="34" r="5" fill="#E2E8F0"/>
	<path d="M21 41L27.2 33.8C27.5983 33.3377 28.3084 33.3366 28.7082 33.7977L33.1247 38.888C33.5431 39.3705 34.2942 39.3423 34.6751 38.8298L37.9766 34.387C38.3738 33.8525 39.1542 33.8104 39.6066 34.2993L43 37.9655V42H21V41Z" fill="#0EA5E9"/>
	<circle cx="41" cy="29" r="2" fill="#E2E8F0"/>
</svg>