<svg width="1200" height="600" viewBox="0 0 1200 600" fill="none" xmlns="http://www.w3.org/2000/svg">
  <defs>
    <linearGradient id="bgGradient" x1="0" y1="0" x2="1200" y2="600" gradientUnits="userSpaceOnUse">
      <stop stop-color="#04111F"/>
      <stop offset="0.38" stop-color="#0A1F35"/>
      <stop offset="0.72" stop-color="#10243C"/>
      <stop offset="1" stop-color="#040914"/>
    </linearGradient>
    <radialGradient id="lensGlow" cx="0" cy="0" r="1" gradientUnits="userSpaceOnUse" gradientTransform="translate(858 278) rotate(150.978) scale(372.61 325.515)">
      <stop stop-color="#8EF2FF" stop-opacity="0.95"/>
      <stop offset="0.24" stop-color="#49C7FF" stop-opacity="0.42"/>
      <stop offset="0.55" stop-color="#1A5F93" stop-opacity="0.14"/>
      <stop offset="1" stop-color="#020611" stop-opacity="0"/>
    </radialGradient>
    <radialGradient id="warmLeak" cx="0" cy="0" r="1" gradientUnits="userSpaceOnUse" gradientTransform="translate(270 80) rotate(35.116) scale(270.719 185.229)">
      <stop stop-color="#FEC17B" stop-opacity="0.45"/>
      <stop offset="0.5" stop-color="#E87D4D" stop-opacity="0.16"/>
      <stop offset="1" stop-color="#E87D4D" stop-opacity="0"/>
    </radialGradient>
    <radialGradient id="coolMist" cx="0" cy="0" r="1" gradientUnits="userSpaceOnUse" gradientTransform="translate(430 420) rotate(-11.463) scale(397.766 177.125)">
      <stop stop-color="#5FE7FF" stop-opacity="0.26"/>
      <stop offset="1" stop-color="#5FE7FF" stop-opacity="0"/>
    </radialGradient>
    <linearGradient id="frameGradient" x1="230" y1="108" x2="522" y2="342" gradientUnits="userSpaceOnUse">
      <stop stop-color="#12304B" stop-opacity="0.92"/>
      <stop offset="1" stop-color="#07111E" stop-opacity="0.72"/>
    </linearGradient>
    <linearGradient id="filmStrip" x1="175" y1="0" x2="175" y2="600" gradientUnits="userSpaceOnUse">
      <stop stop-color="#07101C" stop-opacity="0"/>
      <stop offset="0.15" stop-color="#0F2234" stop-opacity="0.82"/>
      <stop offset="0.85" stop-color="#0F2234" stop-opacity="0.82"/>
      <stop offset="1" stop-color="#07101C" stop-opacity="0"/>
    </linearGradient>
    <linearGradient id="lightBeam" x1="353" y1="114" x2="625" y2="318" gradientUnits="userSpaceOnUse">
      <stop stop-color="#FFFFFF" stop-opacity="0.24"/>
      <stop offset="0.22" stop-color="#93ECFF" stop-opacity="0.18"/>
      <stop offset="1" stop-color="#93ECFF" stop-opacity="0"/>
    </linearGradient>
    <filter id="softBlur" x="-20%" y="-20%" width="140%" height="140%">
      <feGaussianBlur stdDeviation="28"/>
    </filter>
    <filter id="glow" x="-20%" y="-20%" width="140%" height="140%">
      <feGaussianBlur stdDeviation="8" result="blur"/>
      <feMerge>
        <feMergeNode in="blur"/>
        <feMergeNode in="SourceGraphic"/>
      </feMerge>
    </filter>
    <clipPath id="heroFrameClip">
      <rect x="228" y="106" width="300" height="242" rx="22"/>
    </clipPath>
  </defs>

  <rect width="1200" height="600" fill="url(#bgGradient)"/>
  <rect width="1200" height="600" fill="url(#lensGlow)"/>
  <rect width="1200" height="600" fill="url(#warmLeak)"/>
  <rect width="1200" height="600" fill="url(#coolMist)"/>

  <g opacity="0.36">
    <path d="M0 512C150 458 287 447 442 488C611 532 720 534 885 474C1011 428 1098 382 1200 338V600H0V512Z" fill="#081524"/>
    <path d="M0 554C120 516 225 503 365 524C511 547 627 576 783 548C942 519 1082 434 1200 403" stroke="#2E678E" stroke-opacity="0.34" stroke-width="2"/>
  </g>

  <g opacity="0.72">
    <rect x="130" y="38" width="90" height="524" rx="28" fill="url(#filmStrip)"/>
    <rect x="144" y="90" width="62" height="76" rx="8" fill="#050B15" fill-opacity="0.86"/>
    <rect x="144" y="188" width="62" height="76" rx="8" fill="#050B15" fill-opacity="0.86"/>
    <rect x="144" y="286" width="62" height="76" rx="8" fill="#050B15" fill-opacity="0.86"/>
    <rect x="144" y="384" width="62" height="76" rx="8" fill="#050B15" fill-opacity="0.86"/>
    <g opacity="0.78">
      <circle cx="130" cy="76" r="7" fill="#D7F6FF"/>
      <circle cx="220" cy="76" r="7" fill="#D7F6FF"/>
      <circle cx="130" cy="524" r="7" fill="#D7F6FF"/>
      <circle cx="220" cy="524" r="7" fill="#D7F6FF"/>
      <circle cx="130" cy="128" r="7" fill="#D7F6FF"/>
      <circle cx="220" cy="128" r="7" fill="#D7F6FF"/>
      <circle cx="130" cy="226" r="7" fill="#D7F6FF"/>
      <circle cx="220" cy="226" r="7" fill="#D7F6FF"/>
      <circle cx="130" cy="324" r="7" fill="#D7F6FF"/>
      <circle cx="220" cy="324" r="7" fill="#D7F6FF"/>
      <circle cx="130" cy="422" r="7" fill="#D7F6FF"/>
      <circle cx="220" cy="422" r="7" fill="#D7F6FF"/>
    </g>
  </g>

  <g>
    <rect x="228" y="106" width="300" height="242" rx="22" fill="url(#frameGradient)" stroke="#6FE7FF" stroke-opacity="0.24"/>
    <g clip-path="url(#heroFrameClip)">
      <rect x="228" y="106" width="300" height="242" fill="#06101A"/>
      <path d="M228 281C278 245 323 216 375 219C426 221 474 272 528 240V348H228V281Z" fill="#0B2438"/>
      <path d="M228 294C293 258 338 241 389 250C438 259 485 297 528 286V348H228V294Z" fill="#103755"/>
      <path d="M266 137C313 129 364 145 398 172C428 195 455 217 499 218" stroke="#E6FAFF" stroke-opacity="0.52" stroke-width="2" stroke-linecap="round"/>
      <circle cx="350" cy="178" r="52" fill="#D7A46A" fill-opacity="0.18" filter="url(#softBlur)"/>
      <circle cx="443" cy="165" r="94" fill="#8BE9FF" fill-opacity="0.13" filter="url(#softBlur)"/>
      <path d="M244 244L332 182L400 231L462 191L512 241" stroke="#9AEFFF" stroke-opacity="0.48" stroke-width="2" stroke-linecap="round" stroke-linejoin="round"/>
      <circle cx="332" cy="182" r="9" fill="#F6C98A"/>
    </g>
    <rect x="250" y="128" width="256" height="198" rx="14" stroke="#FFFFFF" stroke-opacity="0.08"/>
    <path d="M282 120L523 308" stroke="url(#lightBeam)" stroke-width="36" stroke-linecap="round"/>
  </g>

  <g opacity="0.62">
    <path d="M580 152C640 114 734 110 814 130C894 150 959 199 1011 258" stroke="#67DEFF" stroke-opacity="0.28" stroke-width="2" stroke-dasharray="6 10"/>
    <path d="M544 404C609 430 706 432 802 399C888 370 969 309 1022 248" stroke="#F5C77D" stroke-opacity="0.18" stroke-width="2" stroke-dasharray="6 12"/>
  </g>

  <g filter="url(#glow)">
    <circle cx="870" cy="278" r="152" fill="#061120" fill-opacity="0.68" stroke="#A2F5FF" stroke-opacity="0.35" stroke-width="2"/>
    <circle cx="870" cy="278" r="118" fill="#081624" stroke="#4FD5FF" stroke-opacity="0.28" stroke-width="10"/>
    <circle cx="870" cy="278" r="84" fill="#0B2033" stroke="#C9F8FF" stroke-opacity="0.2" stroke-width="1.5"/>
    <circle cx="870" cy="278" r="51" fill="#102A45"/>
    <circle cx="870" cy="278" r="28" fill="#040E18"/>
    <circle cx="870" cy="278" r="13" fill="#BFF8FF" fill-opacity="0.88"/>
    <path d="M714 278H1026" stroke="#D9FBFF" stroke-opacity="0.2"/>
    <path d="M870 122V434" stroke="#D9FBFF" stroke-opacity="0.16"/>
    <circle cx="870" cy="278" r="171" stroke="#80EFFF" stroke-opacity="0.14" stroke-width="1.5" stroke-dasharray="3 11"/>
  </g>

  <g opacity="0.58">
    <rect x="745" y="96" width="250" height="364" rx="24" stroke="#84F0FF" stroke-opacity="0.16" stroke-width="1.5"/>
    <path d="M772 154H968" stroke="#CFFAFF" stroke-opacity="0.24"/>
    <path d="M772 402H968" stroke="#CFFAFF" stroke-opacity="0.16"/>
    <path d="M807 96V460" stroke="#CFFAFF" stroke-opacity="0.08" stroke-dasharray="5 10"/>
    <path d="M934 96V460" stroke="#CFFAFF" stroke-opacity="0.08" stroke-dasharray="5 10"/>
  </g>

  <g opacity="0.82">
    <circle cx="1016" cy="129" r="3" fill="#EED098"/>
    <circle cx="1064" cy="166" r="4" fill="#83E6FF"/>
    <circle cx="1108" cy="245" r="3" fill="#83E6FF"/>
    <circle cx="1038" cy="424" r="4" fill="#EED098"/>
    <circle cx="725" cy="460" r="3" fill="#83E6FF"/>
  </g>

  <g opacity="0.24">
    <path d="M0 110H1200" stroke="#95ECFF" stroke-width="1" stroke-dasharray="2 16"/>
    <path d="M0 486H1200" stroke="#95ECFF" stroke-width="1" stroke-dasharray="2 16"/>
  </g>
</svg>